<svg width="64" height="64" viewBox="0 0 64 64" fill="none" xmlns="http://www.w3.org/2000/svg">
<path d="M32.0001 33.8667L25.4667 40.4C25.2223 40.6444 24.9112 40.7667 24.5334 40.7667C24.1556 40.7667 23.8445 40.6444 23.6001 40.4C23.3556 40.1556 23.2334 39.8444 23.2334 39.4667C23.2334 39.0889 23.3556 38.7778 23.6001 38.5333L30.1334 32L23.6001 25.4667C23.3556 25.2222 23.2334 24.9111 23.2334 24.5333C23.2334 24.1556 23.3556 23.8444 23.6001 23.6C23.8445 23.3556 24.1556 23.2333 24.5334 23.2333C24.9112 23.2333 25.2223 23.3556 25.4667 23.6L32.0001 30.1333L38.5334 23.6C38.7778 23.3556 39.089 23.2333 39.4667 23.2333C39.8445 23.2333 40.1556 23.3556 40.4001 23.6C40.6445 23.8444 40.7667 24.1556 40.7667 24.5333C40.7667 24.9111 40.6445 25.2222 40.4001 25.4667L33.8667 32L40.4001 38.5333C40.6445 38.7778 40.7667 39.0889 40.7667 39.4667C40.7667 39.8444 40.6445 40.1556 40.4001 40.4C40.1556 40.6444 39.8445 40.7667 39.4667 40.7667C39.089 40.7667 38.7778 40.6444 38.5334 40.4L32.0001 33.8667Z" fill="#15766A"/>
<path d="M32.0001 33.8667L25.4667 40.4C25.2223 40.6444 24.9112 40.7667 24.5334 40.7667C24.1556 40.7667 23.8445 40.6444 23.6001 40.4C23.3556 40.1556 23.2334 39.8444 23.2334 39.4667C23.2334 39.0889 23.3556 38.7778 23.6001 38.5333L30.1334 32L23.6001 25.4667C23.3556 25.2222 23.2334 24.9111 23.2334 24.5333C23.2334 24.1556 23.3556 23.8444 23.6001 23.6C23.8445 23.3556 24.1556 23.2333 24.5334 23.2333C24.9112 23.2333 25.2223 23.3556 25.4667 23.6L32.0001 30.1333L38.5334 23.6C38.7778 23.3556 39.089 23.2333 39.4667 23.2333C39.8445 23.2333 40.1556 23.3556 40.4001 23.6C40.6445 23.8444 40.7667 24.1556 40.7667 24.5333C40.7667 24.9111 40.6445 25.2222 40.4001 25.4667L33.8667 32L40.4001 38.5333C40.6445 38.7778 40.7667 39.0889 40.7667 39.4667C40.7667 39.8444 40.6445 40.1556 40.4001 40.4C40.1556 40.6444 39.8445 40.7667 39.4667 40.7667C39.089 40.7667 38.7778 40.6444 38.5334 40.4L32.0001 33.8667Z" fill="#15766A"/>
<circle cx="32" cy="32" r="32" fill="#8CE8DD"/>
<path d="M30.5002 41.7334L21.7002 32.9334C21.5668 32.8 21.4722 32.6556 21.4162 32.5C21.3611 32.3445 21.3335 32.1778 21.3335 32C21.3335 31.8223 21.3611 31.6556 21.4162 31.5C21.4722 31.3445 21.5668 31.2 21.7002 31.0667L30.5002 22.2667C30.7446 22.0223 31.0499 21.8943 31.4162 21.8827C31.7833 21.872 32.1002 22 32.3668 22.2667C32.6335 22.5111 32.7726 22.8165 32.7842 23.1827C32.7948 23.5498 32.6668 23.8667 32.4002 24.1334L25.8668 30.6667H40.7668C41.1446 30.6667 41.4615 30.7943 41.7175 31.0494C41.9726 31.3054 42.1002 31.6223 42.1002 32C42.1002 32.3778 41.9726 32.6943 41.7175 32.9494C41.4615 33.2054 41.1446 33.3334 40.7668 33.3334H25.8668L32.4002 39.8667C32.6446 40.1111 32.7726 40.4223 32.7842 40.8C32.7948 41.1778 32.6668 41.4889 32.4002 41.7334C32.1557 42 31.8446 42.1334 31.4668 42.1334C31.0891 42.1334 30.7668 42 30.5002 41.7334V41.7334Z" fill="#19897B"/>
</svg>
