<svg width="64" height="64" viewBox="0 0 64 64" fill="none" xmlns="http://www.w3.org/2000/svg">
<circle cx="32" cy="32" r="32" fill="#8CE8DD"/>
<path d="M29.3337 30.6667H40.0003V28H29.3337V30.6667ZM29.3337 34.6667H34.667V32H29.3337V34.6667ZM29.3337 26.6667H40.0003V24H29.3337V26.6667ZM26.667 40C25.9337 40 25.3061 39.7391 24.7843 39.2174C24.2617 38.6947 24.0003 38.0667 24.0003 37.3334V21.3334C24.0003 20.6 24.2617 19.972 24.7843 19.4494C25.3061 18.9276 25.9337 18.6667 26.667 18.6667H42.667C43.4003 18.6667 44.0283 18.9276 44.551 19.4494C45.0728 19.972 45.3337 20.6 45.3337 21.3334V37.3334C45.3337 38.0667 45.0728 38.6947 44.551 39.2174C44.0283 39.7391 43.4003 40 42.667 40H26.667ZM26.667 37.3334H42.667V21.3334H26.667V37.3334ZM26.667 21.3334V37.3334V21.3334ZM21.3337 45.3334C20.6003 45.3334 19.9728 45.0725 19.451 44.5507C18.9283 44.028 18.667 43.4 18.667 42.6667V24H21.3337V42.6667H40.0003V45.3334H21.3337Z" fill="#19897B"/>
</svg>
