<svg width="64" height="65" viewBox="0 0 64 65" fill="none" xmlns="http://www.w3.org/2000/svg">
<path d="M32.0001 34.5548L25.4667 41.0881C25.2223 41.3326 24.9112 41.4548 24.5334 41.4548C24.1556 41.4548 23.8445 41.3326 23.6001 41.0881C23.3556 40.8437 23.2334 40.5326 23.2334 40.1548C23.2334 39.777 23.3556 39.4659 23.6001 39.2215L30.1334 32.6881L23.6001 26.1548C23.3556 25.9104 23.2334 25.5993 23.2334 25.2215C23.2334 24.8437 23.3556 24.5326 23.6001 24.2881C23.8445 24.0437 24.1556 23.9215 24.5334 23.9215C24.9112 23.9215 25.2223 24.0437 25.4667 24.2881L32.0001 30.8215L38.5334 24.2881C38.7778 24.0437 39.089 23.9215 39.4667 23.9215C39.8445 23.9215 40.1556 24.0437 40.4001 24.2881C40.6445 24.5326 40.7667 24.8437 40.7667 25.2215C40.7667 25.5993 40.6445 25.9104 40.4001 26.1548L33.8667 32.6881L40.4001 39.2215C40.6445 39.4659 40.7667 39.777 40.7667 40.1548C40.7667 40.5326 40.6445 40.8437 40.4001 41.0881C40.1556 41.3326 39.8445 41.4548 39.4667 41.4548C39.089 41.4548 38.7778 41.3326 38.5334 41.0881L32.0001 34.5548Z" fill="#15766A"/>
<path d="M32.0001 34.5548L25.4667 41.0881C25.2223 41.3326 24.9112 41.4548 24.5334 41.4548C24.1556 41.4548 23.8445 41.3326 23.6001 41.0881C23.3556 40.8437 23.2334 40.5326 23.2334 40.1548C23.2334 39.777 23.3556 39.4659 23.6001 39.2215L30.1334 32.6881L23.6001 26.1548C23.3556 25.9104 23.2334 25.5993 23.2334 25.2215C23.2334 24.8437 23.3556 24.5326 23.6001 24.2881C23.8445 24.0437 24.1556 23.9215 24.5334 23.9215C24.9112 23.9215 25.2223 24.0437 25.4667 24.2881L32.0001 30.8215L38.5334 24.2881C38.7778 24.0437 39.089 23.9215 39.4667 23.9215C39.8445 23.9215 40.1556 24.0437 40.4001 24.2881C40.6445 24.5326 40.7667 24.8437 40.7667 25.2215C40.7667 25.5993 40.6445 25.9104 40.4001 26.1548L33.8667 32.6881L40.4001 39.2215C40.6445 39.4659 40.7667 39.777 40.7667 40.1548C40.7667 40.5326 40.6445 40.8437 40.4001 41.0881C40.1556 41.3326 39.8445 41.4548 39.4667 41.4548C39.089 41.4548 38.7778 41.3326 38.5334 41.0881L32.0001 34.5548Z" fill="#15766A"/>
<circle cx="32" cy="32.6881" r="32" fill="#C3F4EE"/>
<path d="M32.0001 34.5548L25.4667 41.0881C25.2223 41.3326 24.9112 41.4548 24.5334 41.4548C24.1556 41.4548 23.8445 41.3326 23.6001 41.0881C23.3556 40.8437 23.2334 40.5326 23.2334 40.1548C23.2334 39.777 23.3556 39.4659 23.6001 39.2215L30.1334 32.6881L23.6001 26.1548C23.3556 25.9104 23.2334 25.5993 23.2334 25.2215C23.2334 24.8437 23.3556 24.5326 23.6001 24.2881C23.8445 24.0437 24.1556 23.9215 24.5334 23.9215C24.9112 23.9215 25.2223 24.0437 25.4667 24.2881L32.0001 30.8215L38.5334 24.2881C38.7778 24.0437 39.089 23.9215 39.4667 23.9215C39.8445 23.9215 40.1556 24.0437 40.4001 24.2881C40.6445 24.5326 40.7667 24.8437 40.7667 25.2215C40.7667 25.5993 40.6445 25.9104 40.4001 26.1548L33.8667 32.6881L40.4001 39.2215C40.6445 39.4659 40.7667 39.777 40.7667 40.1548C40.7667 40.5326 40.6445 40.8437 40.4001 41.0881C40.1556 41.3326 39.8445 41.4548 39.4667 41.4548C39.089 41.4548 38.7778 41.3326 38.5334 41.0881L32.0001 34.5548Z" fill="#198A7B"/>
</svg>
